# xmcd
#
# Track frame offsets:
#	150
#	11882
#	30648
#	44869
#	60516
#	78193
#	90729
#	106597
#	120689
#	134340
#	152377
#	166127
#	177393
#	191198
#	204711
#
# Disc length: 2923 seconds
#
# Revision: 1
# Processed by: cddbd v1.5.2PL0 Copyright (c) Steve Scherf et al.
# Submitted via: audiograbber 1.83.01
#
DISCID=c50b690f
DTITLE=Gosdin, Vern - CB90106
DYEAR=2007
DGENRE=Karaoke
TTITLE0=VERN GOSDIN - Set 'Em Up Joe
TTITLE1=VERN GOSDIN - That Just About Does It
TTITLE2=VERN GOSDIN - Is It Raining At Your House
TTITLE3=VERN GOSDIN - Garden, The
TTITLE4=VERN GOSDIN - Chiseled In Stone
TTITLE5=VERN GOSDIN - I Can Tell By The Way You Dance
TTITLE6=VERM GOSDIN - If You're Gonna Do Me Wrong
TTITLE7=VERN GOSDIN - Who You Gonna Blame It On This Time
TTITLE8=VERN GOSDIN - I'm Still Crazy
TTITLE9=VERN GOSDIN - Do You Believe Me Now
TTITLE10=VERN GOSDIN - Way Down Deep
TTITLE11=VERN GOSDIN - Right In The Wrong Direction
TTITLE12=VERN GOSDIN - Slow Burning Memory
TTITLE13=VERN GOSDIN - What Would Your Memories Do
TTITLE14=VERN GOSDIN - Dream Of Me
EXTD=
EXTT0=
EXTT1=
EXTT2=
EXTT3=
EXTT4=
EXTT5=
EXTT6=
EXTT7=
EXTT8=
EXTT9=
EXTT10=
EXTT11=
EXTT12=
EXTT13=
EXTT14=
PLAYORDER=
